<?xml version="1.0" encoding="utf-8"?>
<!-- Generator: Adobe Illustrator 18.0.0, SVG Export Plug-In . SVG Version: 6.00 Build 0)  -->
<!DOCTYPE svg PUBLIC "-//W3C//DTD SVG 1.1//EN" "http://www.w3.org/Graphics/SVG/1.1/DTD/svg11.dtd">
<svg version="1.1" id="Layer_1" xmlns="http://www.w3.org/2000/svg" xmlns:xlink="http://www.w3.org/1999/xlink" x="0px" y="0px"
	 viewBox="0 0 400 400" width="316" height="316" 
enable-background="new 0 0 400 400" xml:space="preserve">
<path fill="#D20037" d="M18.1,43.5c0,0,45.1,9,87.7-0.8c0,0-7.4,55.7-6.6,70.5c0,0,47.5-80.3,165.6-75.4v28.7
	c0,0-173.8-24.6-164.8,160.7H25.5C25.5,227.1,29.6,147.6,18.1,43.5"/>
<path d="M160.8,291.9c0,0-8.2-4.1-33.6,0c0,0,6.6-50.8,2.5-107.4h30.3c0,0,14.8,36.1,58.2,32.8c0,0,51.6,0.8,52.5-56.6
	c0,0,1.6-37.7-39.4-46.7v-13.9c0,0,73,5.7,72.1,62.3c0,0,1.6,67.2-86.1,65.6c0,0-42.6,0-58.2-24.6
	C159.1,203.4,158.3,284.5,160.8,291.9"/>
<path fill="#D20037" d="M25.9,305.1c3.2-3.8,3.7-4.6,2.2-6.2l-1.1-1.2c-0.1-0.4,0.4-1.1,0.9-1c2.4,1.7,5.2,3.9,9.2,7.3
	c2.5,2.1,4.6,4.3,5.6,6.9c1.1,2.6,0.9,5.6-1.5,8.4c-3.2,3.8-8,3.3-10.7,2.4c-0.4,0.1-0.5,0.6-0.6,1.1c-1.2,7.9-1.8,12.8-1,17.4
	c0.2,1.2,0.8,2.5,1.8,3.5c0.1,0.2-0.1,0.6-0.4,0.6c-0.5-0.2-1.2-0.7-1.9-1.3c-3.4-2.9-4.6-5.6-4-12.1c0.2-2.4,0.9-6.5,1.2-9.3
	c0.2-1.4-0.1-2.3-1.7-3.7c-1.8-1.5-1.9-1.6-2.6-0.7l-4.3,5c-3.6,4.2-3.9,4.7-1.9,7l0.7,0.8c0.1,0.4-0.6,1-0.9,0.9
	c-1.7-1.6-3-2.8-4.6-4.2c-1.7-1.4-3.1-2.6-5.1-4.1c-0.1-0.3,0.3-1,0.8-1.1l1.1,0.7c2.5,1.7,3.1,1.2,6.6-2.9L25.9,305.1z M24.3,313.6
	c-0.6,0.7-1,1.2-1,1.4c0,0.2,0.5,0.8,2.6,2.5c1.4,1.2,3.1,2.4,5,2.5c1.8,0.1,3.9-0.5,6.2-3.2c2.7-3.1,3.3-7.8-1.1-11.6
	c-2.5-2.1-2.7-2.1-3.7-0.9L24.3,313.6z"/>
<path fill="#D20037" d="M49.3,336.6c4.9-9.2,15.6-12.6,25.1-7.5c10.7,5.7,11.9,16.3,7.6,24.4c-5,9.3-15.7,12.3-24.6,7.6
	C47.2,355.6,44.9,344.9,49.3,336.6 M76.7,352.4c4.1-7.6,5.1-17.6-3.7-22.3c-4.8-2.6-12.8-2.6-18.2,7.5c-3.6,6.8-5,17.5,4,22.3
	C64.4,362.9,71.8,361.5,76.7,352.4"/>
<path fill="#D20037" d="M125.4,362.2c0.8-3.1,2.2-9,1.7-10.7c-0.2-0.7-1-1.3-2.3-1.7l-1.2-0.4c-0.2-0.4,0.1-1.1,0.4-1.2
	c1.9,0.6,3.8,1.1,5.7,1.6c2.1,0.5,3.5,0.8,5.4,1.2c0.3,0.4,0.1,1-0.2,1.2l-1.2-0.2c-1.3-0.2-2.4,0-2.8,0.6
	c-1.1,1.5-2.6,7.3-3.4,10.2l-1.5,5.7c-1.1,4.4-3,8.9-6.7,11.2c-2.8,1.8-6.9,2.2-10.6,1.2c-3.5-0.9-6.8-2.5-8.8-5.2
	c-2.1-2.9-2.4-7-0.9-13l3.1-12c1.4-5.3,1.5-6.2-1.4-7.2l-1.2-0.4c-0.3-0.3,0.1-1.1,0.4-1.2c2.5,0.8,4.2,1.2,6.2,1.8
	c2.1,0.5,3.8,0.9,6.3,1.4c0.3,0.2,0.1,1.1-0.2,1.2l-1.2-0.2c-3-0.5-3.3,0.3-4.7,5.6l-2.8,11c-2.1,8.2-0.9,14.2,6.8,16.2
	c7.4,1.9,11.6-3.2,13.6-10.9L125.4,362.2z"/>
<path fill="#D20037" d="M176.5,378.4c0,1.6-0.1,7.8,0,9.2c-0.1,0.3-0.4,0.6-1,0.6c-0.6-0.9-2.1-2.8-6.6-8l-11.9-14
	c-1.4-1.6-4.9-6-6-7.2h-0.1c-0.2,0.6-0.3,1.8-0.3,3.4l-0.2,11.4c0,2.5-0.1,9.3,0.8,10.9c0.3,0.6,1.3,0.9,2.7,1l1.6,0.2
	c0.3,0.4,0.2,1-0.1,1.3c-2.4-0.1-4.2-0.2-6.1-0.2c-2.2,0-3.6,0-5.4,0.1c-0.4-0.3-0.4-1-0.1-1.3l1.4-0.1c1.2-0.1,2.1-0.4,2.3-1
	c0.8-1.9,0.8-8.3,0.8-10.8l0.2-15.1c0-1.5,0-2.6-1.1-3.8c-0.7-0.7-2-1.1-3.2-1.3l-0.9-0.1c-0.3-0.3-0.3-1.1,0.1-1.3
	c2.2,0.2,5,0.2,5.9,0.2c0.8,0,1.7,0,2.4-0.1c1,2.7,7.1,9.7,8.8,11.6l5,5.8c3.6,4.1,6.1,7,8.5,9.6h0.1c0.2-0.3,0.2-1.1,0.2-2.2
	l0.2-11.2c0-2.5,0.1-9.3-0.9-10.9c-0.3-0.5-1.1-0.8-3.2-1.1l-0.9-0.1c-0.4-0.3-0.3-1.2,0.1-1.3c2.4,0.1,4.2,0.2,6.2,0.2
	c2.3,0,3.6,0,5.4-0.1c0.4,0.3,0.4,1,0.1,1.3l-0.7,0.1c-1.7,0.2-2.7,0.6-2.9,1.1c-0.9,1.9-0.9,8.4-0.9,10.8L176.5,378.4z"/>
<path fill="#D20037" d="M197.2,357.3c-0.8-3.6-1.3-4.6-3.5-4.4l-1.2,0.1c-0.5-0.2-0.7-1-0.2-1.3c4.3-1.2,8.4-2.3,12.7-3.3
	c4.3-1,8-1.5,11.6-1c7.5,0.9,12.3,6,13.8,12.7c1.5,6.5-0.4,12.8-5.5,17.2c-2.9,2.5-6.9,4.2-10.9,5c-3.3,0.7-6.6,1.1-8.4,1.5
	c-2.1,0.5-4,1-6.4,1.6c-0.3-0.1-0.6-0.9-0.4-1.3l1.1-0.4c2.9-1.1,2.8-1.7,1.6-7.1L197.2,357.3z M205.5,374.6
	c0.6,2.7,1.1,4.3,2.3,5.3c1.5,1.3,3.5,1.4,6.8,0.7c9.9-2.2,12.9-9.7,10.7-19.2c-1.3-5.6-6.1-14.5-19.5-11.5c-3,0.7-4.6,1.5-4.9,1.9
	c-0.3,0.4-0.1,1.7,0.4,4L205.5,374.6z"/>
<path fill="#D20037" d="M233.8,343.2c-0.4-0.1-0.7-0.8-0.4-1.2c1.3-0.6,3.4-1.6,4.9-2.4c1.3-0.7,3.6-2,5.2-2.9
	c0.5-0.1,0.8,0.6,0.7,1.1l-1,0.6c-0.9,0.6-1.3,1.2-1.1,1.6c0.3,0.6,2.5,2.4,5.7,5c5.6,4.4,11.4,8.8,17.1,13.1
	c-0.1-2.9-0.2-6.2-0.3-9.4c0-1.1-0.1-2.1-0.3-2.3c-0.1-0.2-0.5-0.6-1-1c-3.6-2.9-7.2-5.7-10.9-8.5c-1.4-1.1-2.6-1.7-4.3-1l-1.2,0.5
	c-0.5-0.2-0.8-0.8-0.5-1.2c1.4-0.6,3.2-1.5,5-2.4c2.3-1.2,4-2.2,5-2.8c0.4,0,0.8,0.5,0.7,1.1l-1.2,0.7c-1.7,1.1-1.6,1.4,0.4,3.1
	c2.2,1.8,5,4,7.8,6.2c-0.1-2.3-0.1-4.5-0.4-7.5c-0.4-4.8-0.9-5.2-2.4-4.5l-1.4,0.6c-0.6-0.3-0.7-0.9-0.5-1.2
	c1.3-0.6,2.7-1.2,4.4-2.1c1.5-0.8,3.4-1.8,4.4-2.5c0.4,0,0.8,0.6,0.7,1.1l-1.3,0.8c-1.9,1.2-1.6,3.7-1.6,6.1
	c-0.1,2.2,0.1,7.3,0.2,9.3c0,0.6,0.1,1.1,0.2,1.3c0.1,0.2,0.4,0.5,0.9,0.9c3.4,2.8,6.9,5.4,10.3,8.1c-0.3-4-0.6-8-0.9-12
	c-0.2-2.7-1-10.2-1.1-11.2c-0.3-2-0.5-4.4-0.8-5c-0.3-0.6-1.1-0.7-2.1-0.3l-1.4,0.6c-0.6-0.2-0.8-0.8-0.5-1.1
	c1.8-0.8,3.1-1.4,4.5-2.2c1.8-0.9,3.1-1.7,4.2-2.4c0.4-0.1,0.8,0.5,0.7,1.1l-0.8,0.6c-2.2,1.4-1.9,3.1-1.3,11l0.7,9.6
	c0.4,5.8,0.9,11.3,1.6,17.3c-0.1,0.2-0.3,0.3-0.5,0.4c-0.2,0.1-0.5,0.2-0.7,0.2c-3.6-3.4-9.4-7.8-12.5-10.3
	c0.1,4.3,0.4,11.7,1.1,16.2c-0.1,0.2-0.2,0.3-0.5,0.4c-0.2,0.1-0.5,0.2-0.8,0.2c-1.8-1.5-5.8-4.8-7.1-5.8c-6.3-4.9-12.6-9.9-19-14.7
	c-1.9-1.4-3.1-2.4-5.1-1.6L233.8,343.2z"/>
<path fill="#D20037" d="M295.2,327.2c-7.1-7.7-6.6-19,1.3-26.2c8.9-8.1,19.3-5.8,25.5,1c7.1,7.8,6.3,18.9-1.1,25.7
	C312.3,335.6,301.5,334.2,295.2,327.2 M319.2,306.8c-5.8-6.4-14.9-10.7-22.3-4c-4,3.7-6.7,11.2,1,19.7c5.2,5.7,14.8,10.6,22.4,3.7
	C324.9,321.9,326.2,314.4,319.2,306.8"/>
<path fill="#D20037" d="M332.2,291c-8.7-5.8-11-16.8-5-25.8c6.7-10,17.4-10.2,25-5.1c8.8,5.9,10.7,16.9,5.1,25.3
	C350.9,295,340.1,296.2,332.2,291 M350.7,265.4c-7.2-4.8-17-6.8-22.6,1.5c-3,4.5-3.9,12.5,5.6,18.8c6.4,4.3,16.9,6.8,22.6-1.8
	C359.9,278.7,359.3,271.1,350.7,265.4"/>
<path fill="#D20037" d="M350.8,239.2c-3.4-1.3-4.6-1.4-5.6,0.6l-0.5,1c-0.4,0.3-1.2,0.1-1.2-0.5c1.3-4.3,2.6-8.3,4.1-12.5
	c1.5-4.1,3.1-7.5,5.4-10.3c4.8-5.8,11.7-7.1,18.1-4.7c6.2,2.3,10.5,7.2,11.5,13.9c0.6,3.8-0.3,8.1-1.6,11.9
	c-1.1,3.2-2.7,6.2-3.3,7.9c-0.8,2.1-1.3,3.9-2.1,6.2c-0.3,0.2-1.1,0.1-1.3-0.4l0.3-1.2c0.6-3,0.1-3.3-5.1-5.2L350.8,239.2z
	 M369.9,241.5c2.6,1,4.2,1.4,5.7,1c1.9-0.5,3.1-2.2,4.2-5.3c3.5-9.5-1.2-16.1-10.4-19.4c-5.4-2-15.5-2.7-20.2,10.2
	c-1.1,2.9-1.2,4.6-1.1,5.1c0.2,0.5,1.3,1,3.6,1.8L369.9,241.5z"/>
<path fill="#D20037" d="M387.4,164.3c5.5,0.1,6.2,0,6.6-3.4l0.2-1.4c0.3-0.3,1.2-0.2,1.3,0.1c-0.2,3-0.2,4.7-0.3,6.8
	c0,2.2,0,4.1,0.1,6.4c-0.2,0.3-1,0.4-1.3,0.1l-0.1-1.1c-0.4-3-1-3.2-6.5-3.2l-19.3-0.3c-4.4-0.1-5.3,0-5.6,2.4l-0.2,1.9
	c-0.3,0.4-1.1,0.3-1.3-0.1c-0.3-2.8-0.3-6-0.3-10.4c0.1-4.3,0.7-7.6,2.2-10c1.6-2.4,4.3-4.1,7.9-4.1c4.8,0.1,7.2,3.1,8.2,5.4
	c1.1,2.3,1.5,5.1,1.5,7.2c-0.2,0.4-0.9,0.4-1,0c-1-5.7-4.1-7.8-8.7-7.8c-5.1-0.1-8.4,2.9-8.5,8.3c0,2.8,0.2,2.8,1.8,2.9L387.4,164.3
	z"/>
<path fill="#D20037" d="M379.2,115.5c-1.1,0.6-1.2,0.8-0.9,2.3l1.3,7.8c0.2,1.3,0.4,1.6,1.6,1.8l5.7,0.9c2.5,0.4,3.9,0.5,4.5,0.4
	c0.6-0.1,0.9-0.4,0.8-1.7l-0.1-1.7c0.2-0.4,1-0.5,1.3-0.1c0.1,1.4,0.4,3,0.8,5.4c0.3,1.7,0.7,3.5,1,4.9c-0.2,0.3-1,0.6-1.3,0.3
	l-0.4-1.7c-0.3-1.2-1.1-2.3-3.1-2.7c-2.5-0.5-6.1-1.4-12.3-2.6l-14.8-2.9c-2-0.4-3-0.5-3.8-0.3c-0.6-1.2-1.6-1.9-2.4-2.3
	c-0.1-0.3,0-0.7,0.3-0.9c2.2-1.1,4.4-2.3,6.5-3.5l19.5-10.6c4.2-2.3,4.8-3.1,4.7-5.3l-0.1-1.4c0.2-0.4,1-0.4,1.3-0.2
	c0.3,2.1,0.5,3.9,0.9,6.3c0.4,2.5,0.9,4.4,1.2,5.9c-0.1,0.4-0.9,0.6-1.3,0.3l-0.4-1.5c-0.3-1.1-0.7-1.7-1.2-1.6
	c-0.6,0.1-1.5,0.5-2.6,1.1L379.2,115.5z M376.4,126.5c1.3,0.2,1.3,0.1,1.1-1.3l-1.1-6.3c-0.3-1.5-0.5-1.6-1.8-0.9l-7.9,4.2
	c-1.2,0.6-2.5,1.3-3,1.7l0,0.1c0.3,0.1,1.6,0.4,3.3,0.7L376.4,126.5z"/>
<path fill="#D20037" d="M358.2,92c-4.6,1.8-5.4,2.3-4.8,4.4l0.4,1.6c-0.1,0.4-0.9,0.7-1.2,0.4c-1.3-2.6-2.8-5.9-4.7-10.7
	c-1.2-3-2.1-6-1.8-8.7c0.3-2.8,1.8-5.4,5.2-6.7c4.6-1.8,8.6,0.8,10.5,2.9c0.4,0.1,0.8-0.3,1.1-0.7c4.7-6.4,7.6-10.5,9.1-14.9
	c0.4-1.1,0.5-2.5,0-3.9c0-0.3,0.4-0.5,0.7-0.3c0.3,0.4,0.7,1.1,1.1,2c1.6,4.1,1.4,7.1-2.2,12.5c-1.3,2-3.9,5.3-5.5,7.7
	c-0.8,1.2-1,2.1-0.2,4.1c0.9,2.2,1,2.3,2,1.9l6.1-2.4c5.1-2,5.7-2.3,4.9-5.3l-0.3-1.1c0.1-0.4,1-0.6,1.3-0.4
	c0.8,2.2,1.4,3.9,2.1,5.9c0.8,2,1.6,3.8,2.6,6c0,0.4-0.7,0.7-1.2,0.6l-0.6-1.2c-1.5-2.7-2.1-2.5-7.2-0.5L358.2,92z M363.6,85.3
	c0.9-0.3,1.4-0.6,1.5-0.8c0.1-0.2-0.1-1-1.1-3.5c-0.7-1.8-1.6-3.5-3.2-4.5c-1.5-0.9-3.7-1.4-7-0.1c-3.8,1.5-6.6,5.3-4.4,10.8
	c1.2,3,1.4,3.1,2.8,2.5L363.6,85.3z"/>
<path fill="#D20037" d="M340.6,53.6c-4.6,3.1-5.2,3.6-3.7,6.3l0.6,1.1c0,0.4-0.8,0.8-1.1,0.6c-1.3-2.2-2.2-3.6-3.5-5.6
	c-1.1-1.7-2.2-3.1-3.5-5c0-0.4,0.7-1,1-0.8l0.6,0.8c2,2.3,2.7,2,7.2-1.1l5-3.3c0.8-0.6,1.6-1.2,1.3-1.7c-0.3-0.4-0.9-0.7-1.3-0.9
	c-0.9-0.3-2.8-0.6-3.6-0.8l-7.8-1.6c-1.3-0.3-5-1-5.9-1c-0.4,0-0.7,0-0.9,0.2c-0.2,0.1-0.2,0.4,0.1,1l0.5,1.4
	c-0.1,0.5-0.7,0.8-1.1,0.6c-0.9-1.6-2.1-3.3-3.1-4.9c-1-1.5-2.1-3-3-4.2c0-0.4,0.6-0.9,1-0.8c0.8,1.1,2.4,2.5,3.9,3.2
	c1.5,0.8,5.2,1.8,9.1,2.7l6.3,1.4c1,0.2,1.7,0.3,2,0.1c0.3-0.2,0.5-0.7,0.8-1.7c2-7.3,3.7-13.3,4.9-19.1c0.4-1.7,0.3-3.1-0.5-4.7
	l-0.7-1.3c0-0.4,0.8-0.9,1.1-0.6c0.7,1.2,1.8,2.9,3.1,5c1.2,1.8,2.3,3.3,3.7,5.2c0.1,0.4-0.5,1-1,0.9l-0.8-0.9
	c-0.5-0.6-0.9-0.9-1.1-0.7c-0.3,0.2-0.4,0.7-0.6,1.3c-0.5,1.5-0.9,3.4-1.7,6.4l-1.6,6.1c-1.1,4.3-1.5,5.6-0.8,6.7
	c0.4,0.6,1.1,0.4,2.6-0.7l5.6-3.8c4.6-3.1,5.1-3.6,3.7-6.2l-0.7-1.3c0-0.4,0.8-0.8,1.1-0.6c1.3,2.2,2.3,3.7,3.4,5.4
	c1.2,1.8,2.2,3.2,3.5,5c0,0.3-0.6,0.9-1,0.8l-0.7-0.8c-1.9-2.1-2.5-1.8-7,1.2L340.6,53.6z"/>
</svg>
